<svg xmlns="http://www.w3.org/2000/svg" viewBox="0 0 112 123">
  <path fill="#51B53C" fill-rule="evenodd" d="M55.71 0c20.85 13.21 39.68 19.47 55.85 17.99 2.82 57.1-18.26 90.82-55.63 104.89C19.84 109.71-1.5 77.44.08 17.12 19.06 18.12 37.67 14.01 55.71 0z"/>
  <path fill="#FFF" fill-rule="evenodd" d="M55.73 7.05c18.45 11.7 35.13 17.23 49.43 15.92 2.5 50.54-16.17 80.39-49.24 92.85-31.94-11.66-50.83-40.22-49.43-93.61 16.8.88 33.28-2.75 49.24-15.16z"/>
  <path fill="#51B53C" fill-rule="evenodd" d="M56.24 19.54c14.22 9.01 27.06 13.27 38.08 12.27 1.92 38.94-12.45 61.93-37.94 71.53-.16-.06-.32-.12-.48-.18-.16.06-.32.12-.48.18-25.48-9.6-39.86-32.59-37.94-71.53 11.02 1.01 23.87-3.26 38.08-12.27l.33.25.33-.25z"/>
  <path fill="#FFF" d="M35.44 58.28l7.47-.1.56.14a31.83 31.83 0 0 1 4.26 2.99c.96.81 1.87 1.69 2.74 2.65 2.68-4.31 5.54-8.28 8.56-11.92 3.31-3.99 5.38-6.18 9.06-9.49l.73-.28h8.16l-1.65 1.82c-5.05 5.61-8.21 9.99-12.35 15.97-4.15 6-7.85 12.18-11.15 18.54l-1.03 1.98-.94-2.02a39.7 39.7 0 0 0-6.3-10.21 39.38 39.38 0 0 0-8.74-8.09l.62-1.98z"/>
</svg> 